-
      the fast  and The Hottest Private Tracker on the net

Please Seed back to make the speed Faster!!
 ............ NFO .............
-[URL=http://img585.imageshack.us/i/1z6qi5u.jpg/][IMG]http://img585.imageshack.us/img585/183/1z6qi5u.jpg[/IMG][/URL]


MRFIXIT is proud to present:   Bob The Builder - Can We Fix It Yes We Can 
Source:  Bob The Builder - Can We Fix It Yes We Can 2013 DVDR L-S 

[URL=http://img204.imageshack.us/i/27867621.png/][IMG]http://img204.imageshack.us/img204/2294/27867621.png[/IMG][/URL]

Complete name                            : C:Bob the Builder Can We Fix It Yes We Can-Dvdrip-H264-MRFIXIT.avi
Format                                   : AVI
Format/Info                              : Audio Video Interleave
Format profile                           : OpenDML
Format settings                          : rec
File size                                : 374 MiB
Duration                                 : 50mn 21s
Overall bit rate                         : 1 037 Kbps
Writing application                      : AVI-Mux GUI 1.17.8.3, Feb 16 201019:42:50

[URL=http://img713.imageshack.us/i/32031619.png/][IMG]http://img713.imageshack.us/img713/512/32031619.png[/IMG][/URL]

ID                                       : 0
Format                                   : AVC
Format/Info                              : Advanced Video Codec
Format profile                           : High@L3.0
Format settings, CABAC                   : Yes
Format settings, ReFrames                : 3 frames
Codec ID                                 : H264
Duration                                 : 50mn 21s
Bit rate                                 : 900 Kbps
Width                                    : 720 pixels
Height                                   : 384 pixels
Display aspect ratio                     : 1.85:1
Frame rate                               : 25.000 fps
Color space                              : YUV
Chroma subsampling                       : 4:2:0
Bit depth                                : 8 bits
Scan type                                : Progressive
Bits/(Pixel*Frame)                       : 0.130
Stream size                              : 324 MiB (87%)
Writing library                          : x264 core 130 r2273kMod b3065e6
Encoding settings                        : cabac=1 / ref=3 / deblock=1:0:0 / analyse=0x3:0x13 / me=umh / subme=7 / psy=1 / fade_compensate=0.00 / psy_rd=1.00:0.00 / mixed_ref=1 / me_range=16 / chroma_me=1 / trellis=1 / 8x8dct=1 / cqm=0 / deadzone=21,11 / fast_pskip=1 / chroma_qp_offset=-2 / threads=6 / lookahead_threads=6 / sliced_threads=1 / slices=6 / nr=0 / decimate=1 / interlaced=0 / bluray_compat=0 / constrained_intra=0 / bframes=0 / weightp=2 / keyint=250 / keyint_min=25 / scenecut=40 / intra_refresh=0 / rc=2pass / mbtree=0 / bitrate=900 / ratetol=1.0 / qcomp=0.60 / qpmin=10 / qpmax=51 / qpstep=4 / cplxblur=20.0 / qblur=0.5 / ip_ratio=1.40 / aq=1:1.00


[URL=http://img684.imageshack.us/i/14258198.png/][IMG]http://img684.imageshack.us/img684/6473/14258198.png[/IMG][/URL]

ID                                       : 1
Format                                   : MPEG Audio
Format version                           : Version 1
Format profile                           : Layer 3
Mode                                     : Joint stereo
Mode extension                           : MS Stereo
Codec ID                                 : 55
Codec ID/Hint                            : MP3
Duration                                 : 50mn 21s
Bit rate mode                            : Constant
Bit rate                                 : 128 Kbps
Channel(s)                               : 2 channels
Sampling rate                            : 48.0 KHz
Compression mode                         : Lossy
Stream size                              : 46.1 MiB (12%)
Alignment                                : Aligned on interleaves
Interleave, duration                     : 24 ms (0.60 video frame)
Interleave, preload duration             : 3000 ms
Writing library                          : LAME3.99.5




 
http://www.amazon.co.uk/Bob-Builder-Can-Fix-Yes/dp/B00A1B747K

[URL=http://img225.imageshack.us/i/39945039.png/][IMG]http://img225.imageshack.us/img225/9529/39945039.png[/IMG][/URL]

Dizzy wants to prove she's a whizz at being helpful but learns that being thoughtful is what really gets the job done! Spud goes missing before a big performance. 
Can Dizzy save the day so that the show can go on? Scratch learns that some problems are best shared, and comes up with a solution by getting everyone to work together. 
Hold on to your hard hats and see why the best plans start with teamwork! 

[URL=http://img405.imageshack.us/i/70975872.png/][IMG]http://img405.imageshack.us/img405/6001/70975872.png[/IMG][/URL]

Bob The Builder  

[URL=http://img819.imageshack.us/i/94723758.png/][IMG]http://img819.imageshack.us/img819/9863/94723758.png[/IMG][/URL]

[URL=http://img268.imageshack.us/i/50329317.jpg/][IMG]http://img268.imageshack.us/img268/5128/50329317.jpg[/IMG][/URL]
[URL=http://img706.imageshack.us/i/32719289.jpg/][IMG]http://img706.imageshack.us/img706/4278/32719289.jpg[/IMG][/URL]
[URL=http://img189.imageshack.us/i/82455952.jpg/][IMG]http://img189.imageshack.us/img189/2088/82455952.jpg[/IMG][/URL]
[URL=http://img9.imageshack.us/i/29351142.jpg/][IMG]http://img9.imageshack.us/img9/7563/29351142.jpg[/IMG][/URL]
[URL=http://img805.imageshack.us/i/14475686.jpg/][IMG]http://img805.imageshack.us/img805/2350/14475686.jpg[/IMG][/URL]
[URL=http://img401.imageshack.us/i/24053643.jpg/][IMG]http://img401.imageshack.us/img401/389/24053643.jpg[/IMG][/URL]

[URL=http://img834.imageshack.us/i/greets3.png/][IMG]http://img834.imageshack.us/img834/3478/greets3.png[/IMG][/URL]

voltage, DQ1, LEGION, PRESTiGE, 26k, RemixHD, UNiQUE, Legend-Rg, LS, DiNGiE, Relentle$$,
Bigguy, paranoid53, HIVE-CM8, TRINITY, Rx, INSPiRAL, HOPE, tommiecook, Wayne, Seedling, Quagmire